<svg width="40" height="40" viewBox="0 0 40 40" fill="none" xmlns="http://www.w3.org/2000/svg">
<path d="M19.5087 12.1897C19.2649 12.2303 18.893 12.3616 18.6587 12.4866C18.443 12.5991 18.3118 12.6991 17.9274 13.0335C17.4774 13.4241 17.0805 13.5772 16.393 13.6241C15.9243 13.6553 15.9055 13.6585 15.5962 13.7553C14.4618 14.1147 13.6337 15.2147 13.6274 16.371C13.6243 16.8022 13.5024 17.246 13.2837 17.6022C13.2305 17.6928 13.0743 17.8928 12.9337 18.046C12.6399 18.3772 12.4743 18.6397 12.3462 18.9928C12.1087 19.646 12.1024 20.3303 12.3337 20.9741C12.4743 21.3678 12.6243 21.6022 13.0368 22.0741C13.4055 22.496 13.5837 22.9303 13.6149 23.4803C13.6493 24.1116 13.7368 24.4647 13.9743 24.9022C14.2305 25.3803 14.618 25.7678 15.0962 26.0272C15.5305 26.2616 15.8118 26.3366 16.393 26.3741C17.0805 26.4178 17.4774 26.571 17.9274 26.9647C18.3399 27.3241 18.4493 27.4022 18.7368 27.546C19.2055 27.7772 19.4337 27.8272 20.018 27.8241C20.4712 27.8241 20.5462 27.8147 20.7993 27.7366C21.2805 27.5897 21.5368 27.4366 22.0774 26.9647C22.5274 26.571 22.9243 26.4178 23.6118 26.3741C24.193 26.3366 24.4743 26.2616 24.9087 26.0272C25.3868 25.7678 25.7743 25.3803 26.0305 24.9022C26.268 24.4647 26.3555 24.1116 26.3899 23.4803C26.4212 22.9303 26.5993 22.496 26.968 22.0741C27.3805 21.6022 27.5305 21.3678 27.6712 20.9741C27.8962 20.3428 27.8962 19.6585 27.6712 19.0241C27.5305 18.6303 27.3868 18.4022 26.968 17.9241C26.5993 17.5022 26.4212 17.0678 26.3899 16.5178C26.368 16.1053 26.3274 15.8428 26.2462 15.5928C26.0212 14.896 25.5399 14.3116 24.9087 13.971C24.4743 13.7366 24.193 13.6616 23.6118 13.6241C22.9243 13.5803 22.5274 13.4272 22.0774 13.0335C21.5337 12.5616 21.2774 12.4053 20.7993 12.2647C20.5712 12.196 20.4399 12.1772 20.0962 12.171C19.8649 12.1647 19.5993 12.171 19.5087 12.1897Z" fill="#7D7D7E"/>
<path d="M24.0706 16.5273C23.8581 16.6086 23.6737 16.6961 23.6581 16.7211C23.6456 16.743 23.5737 17.1211 23.4987 17.5523C23.4237 17.9867 23.3549 18.343 23.3456 18.343C23.3362 18.343 23.1674 18.2086 22.9706 18.043C22.7737 17.8805 22.4831 17.643 22.3268 17.5148L22.0393 17.2805L21.6393 17.4242C21.4174 17.5023 21.2237 17.5773 21.2112 17.5898C21.1987 17.6023 21.6424 17.9648 22.2018 18.393L23.2143 19.1711L23.4831 19.9023C23.6299 20.3023 23.7549 20.6367 23.7612 20.643C23.7831 20.668 24.4706 20.3867 24.4706 20.3555C24.4706 20.3336 24.3581 20.0086 24.2206 19.6305C24.0831 19.2555 23.9706 18.9148 23.9706 18.8773C23.9706 18.843 24.0831 18.2836 24.2237 17.6367C24.3612 16.9898 24.4706 16.4461 24.4643 16.4211C24.4581 16.393 24.3456 16.4242 24.0706 16.5273Z" fill="black"/>
<path d="M20.4652 17.8531C20.2777 17.925 20.1277 17.9969 20.1277 18.0125C20.1277 18.0281 20.3214 18.625 20.5558 19.3344C20.9683 20.5812 20.9808 20.6281 20.9433 20.75C20.8589 21.0312 20.5558 21.2281 20.2058 21.2281C19.8995 21.2312 19.7402 21.1094 19.5995 20.7687C19.5495 20.6469 19.3433 20.0969 19.1433 19.5469C18.9402 18.9969 18.7652 18.5344 18.7495 18.5187C18.7183 18.4844 18.0652 18.7187 18.0433 18.7687C18.0245 18.8219 18.8089 20.9562 18.9495 21.2344C19.112 21.55 19.3027 21.7531 19.5433 21.875C19.7089 21.9562 19.7652 21.9688 19.9995 21.9688C20.4714 21.9688 21.1027 21.7375 21.4027 21.4562C21.7652 21.1156 21.862 20.7125 21.712 20.1562C21.6089 19.775 20.8683 17.7406 20.8308 17.7312C20.812 17.725 20.6495 17.7812 20.4652 17.8531Z" fill="black"/>
<path d="M16.625 19.3011C16.3219 19.3511 14.5 19.9918 14.5 20.048C14.5 20.1199 15.8094 23.4824 15.8406 23.4918C15.9 23.5105 17.6063 22.8855 17.8938 22.7386C18.1219 22.623 18.3281 22.3855 18.3938 22.1668C18.4656 21.923 18.4438 21.5355 18.3469 21.3355C18.2 21.0324 17.9719 20.8793 17.5844 20.823C17.4469 20.8043 17.4375 20.798 17.4813 20.7511C17.6563 20.5574 17.7125 20.1043 17.5938 19.8543C17.4938 19.6511 17.3 19.4511 17.1344 19.3824C16.975 19.3136 16.7531 19.2793 16.625 19.3011ZM16.7031 20.0418C16.9938 20.1636 17.0156 20.5761 16.7375 20.7449C16.625 20.8168 15.8344 21.123 15.7719 21.123C15.7406 21.123 15.6531 20.9136 15.475 20.4105C15.4594 20.3668 15.5625 20.3199 16.0781 20.1386C16.5063 19.9886 16.5531 19.9793 16.7031 20.0418ZM17.3969 21.4699C17.5719 21.5355 17.6563 21.898 17.5406 22.0949C17.5125 22.1418 17.4094 22.2261 17.3156 22.2761C17.1375 22.3699 16.3781 22.6543 16.3063 22.6543C16.2594 22.6543 15.9563 21.8105 15.9906 21.7761C16.0219 21.7511 16.8438 21.4793 17.0156 21.4386C17.1406 21.4105 17.2656 21.4199 17.3969 21.4699Z" fill="black"/>
</svg>
