<svg width="40" height="40" viewBox="0 0 40 40" fill="none" xmlns="http://www.w3.org/2000/svg">
<path d="M27.5928 16.2671L20.2778 13.005C20.1007 12.9254 19.8983 12.9254 19.7203 13.005L12.4057 16.2671C12.1669 16.3734 12.0092 16.6074 12.0004 16.8689C11.9918 17.13 12.1316 17.3739 12.3625 17.4967L19.677 21.3976C19.7779 21.4517 19.8884 21.4781 19.9993 21.4781C20.1107 21.4781 20.2211 21.4517 20.3221 21.3976L27.637 17.4967C27.8677 17.3739 28.0076 17.13 27.9992 16.8689C27.9892 16.6074 27.8319 16.3734 27.5928 16.2671Z" fill="#7D7D7E"/>
<path d="M26.9922 19.1826L19.9993 22.9129L13.0076 19.1826C12.6729 19.004 12.2584 19.1307 12.081 19.4648C11.9024 19.7987 12.0291 20.2131 12.3629 20.3912L19.6774 24.2932C19.7783 24.3469 19.8888 24.3737 19.9997 24.3737C20.1111 24.3737 20.2215 24.3473 20.3225 24.2932L27.6374 20.3912C27.9704 20.2131 28.097 19.7987 27.9194 19.4648C27.7406 19.1307 27.3259 19.0039 26.9922 19.1826Z" fill="#7D7D7E"/>
<path d="M26.9922 21.8624L19.9993 25.5915L13.0076 21.8624C12.6729 21.6836 12.2584 21.8105 12.081 22.1441C11.9024 22.478 12.0291 22.8928 12.3629 23.0707L19.6774 26.9714C19.7783 27.0255 19.8888 27.0523 19.9997 27.0523C20.1111 27.0523 20.2215 27.0259 20.3225 26.9714L27.6374 23.0707C27.9704 22.8928 28.097 22.4781 27.9194 22.1441C27.7406 21.8105 27.3264 21.6835 26.9922 21.8624Z" fill="#7D7D7E"/>
</svg>
