<svg width="40" height="40" viewBox="0 0 40 40" fill="none" xmlns="http://www.w3.org/2000/svg">
<g clip-path="url(#clip0_2_1876)">
<path d="M24.8456 18.3568C24.475 18.2885 24.1369 18.4933 24.0686 18.8639C23.9678 19.4719 23.698 19.9791 23.2559 20.4212C22.817 20.8276 22.274 21.1299 21.6986 21.234C21.3605 21.3022 21.1232 21.6404 21.1914 22.011C21.2597 22.3491 21.5653 22.5929 21.9359 22.5507C22.7812 22.3816 23.5582 21.9752 24.1694 21.3673C24.7774 20.7593 25.1837 19.9791 25.3528 19.1338C25.4211 18.7632 25.2195 18.425 24.8456 18.3568Z" fill="#7D7D7E"/>
<path d="M21.4291 12C17.8171 12 14.8846 14.9292 14.8846 18.5444C14.8846 19.5165 15.096 20.4398 15.4763 21.2688L13.0413 23.3983C11.2662 25.2254 12.2643 26.8151 12.7357 27.2866C13.1746 27.7612 14.8131 28.7658 16.624 26.9809L18.7697 24.5231C19.5825 24.884 20.4797 25.0856 21.4258 25.0856C25.041 25.0856 27.9702 22.1564 27.9702 18.5412C27.9702 14.926 25.0443 12 21.4291 12ZM21.4291 23.7201C18.5714 23.7201 16.2534 21.4021 16.2534 18.5444C16.2534 15.6867 18.5714 13.3687 21.4291 13.3687C24.2868 13.3687 26.6048 15.6867 26.6048 18.5444C26.6048 21.4021 24.29 23.7201 21.4291 23.7201Z" fill="#7D7D7E"/>
</g>
<defs>
<clipPath id="clip0_2_1876">
<rect width="16" height="16" fill="red" transform="translate(12 12)"/>
</clipPath>
</defs>
</svg>
