<svg width="40" height="40" viewBox="0 0 40 40" fill="none" xmlns="http://www.w3.org/2000/svg">
<path d="M19.525 12.2451C18.8563 12.4607 18.4375 13.0389 18.4375 13.7482C18.4375 14.192 18.6094 14.6139 18.9094 14.8951C19.0625 15.0389 19.3563 15.2076 19.5344 15.2514L19.6875 15.292V15.7639V16.2326L19.375 16.2889C18.8062 16.3857 18.2656 16.6076 17.8187 16.9264L17.5844 17.0951L17.25 16.7639L16.9188 16.4326L17.0031 16.2545C17.4781 15.2482 16.8031 14.092 15.6906 14.0107C14.7406 13.9389 13.9406 14.7389 14.0125 15.6889C14.0938 16.8014 15.25 17.4764 16.2562 17.0014L16.4344 16.917L16.7656 17.2482L17.0969 17.5826L16.9281 17.817C16.6094 18.2639 16.3875 18.8045 16.2906 19.3732L16.2344 19.6857H15.7656H15.2938L15.2531 19.5326C15.2094 19.3545 15.0406 19.0607 14.8969 18.9076C14.3969 18.3795 13.5063 18.2764 12.8875 18.6826C12.425 18.9826 12.1875 19.4326 12.1875 19.9982C12.1875 20.8951 12.8531 21.5607 13.75 21.5607C14.1937 21.5607 14.6156 21.3889 14.8969 21.0889C15.0406 20.9357 15.2094 20.642 15.2531 20.4639L15.2938 20.3107H15.7656H16.2344L16.2906 20.6232C16.3875 21.192 16.6094 21.7326 16.9281 22.1795L17.0969 22.4139L16.7656 22.7482L16.4344 23.0795L16.2562 22.9951C15.25 22.5201 14.0938 23.1951 14.0125 24.3076C13.9406 25.2576 14.7406 26.0576 15.6906 25.9857C16.8 25.9045 17.4781 24.7482 17.0031 23.742L16.9188 23.5639L17.25 23.2326L17.5844 22.9014L17.8187 23.0701C18.2656 23.3889 18.8062 23.6107 19.375 23.7076L19.6875 23.7639V24.2326V24.7045L19.5344 24.7451C19.3563 24.7889 19.0625 24.9576 18.9094 25.1014C18.3 25.6764 18.275 26.717 18.8531 27.3389C19.3469 27.867 20.2469 27.9701 20.8625 27.5639C21.325 27.2639 21.5625 26.8139 21.5625 26.2482C21.5625 25.8045 21.3906 25.3826 21.0906 25.1014C20.9375 24.9576 20.6437 24.7889 20.4656 24.7451L20.3125 24.7045V24.2326V23.7639L20.625 23.7076C21.1938 23.6107 21.7344 23.3889 22.1813 23.0701L22.4156 22.9014L22.75 23.2326L23.0813 23.5639L22.9969 23.742C22.6625 24.4482 22.8969 25.3014 23.5406 25.7264C24.4656 26.3357 25.7 25.8482 25.9531 24.7732C26.0781 24.242 25.925 23.7076 25.5312 23.3076C25.0594 22.8295 24.3563 22.7045 23.7438 22.9951L23.5656 23.0795L23.2344 22.7482L22.9031 22.4139L23.0719 22.1795C23.3906 21.7326 23.6125 21.192 23.7094 20.6232L23.7656 20.3107H24.2344H24.7063L24.7469 20.4639C24.7906 20.642 24.9594 20.9357 25.1031 21.0889C25.6031 21.617 26.4938 21.7201 27.1125 21.3139C27.575 21.0139 27.8125 20.5639 27.8125 19.9982C27.8125 19.1014 27.1469 18.4357 26.25 18.4357C25.8063 18.4357 25.3844 18.6076 25.1031 18.9076C24.9594 19.0607 24.7906 19.3545 24.7469 19.5326L24.7063 19.6857H24.2344H23.7656L23.7094 19.3732C23.6125 18.8045 23.3906 18.2639 23.0719 17.817L22.9031 17.5826L23.2344 17.2482L23.5656 16.917L23.7438 17.0014C24.3563 17.292 25.0594 17.167 25.5312 16.6889C25.7563 16.4607 25.8813 16.2357 25.9531 15.9295C26.1938 14.9076 25.3594 13.9326 24.3094 14.0107C23.1969 14.092 22.5219 15.2482 22.9969 16.2545L23.0813 16.4326L22.75 16.7639L22.4156 17.0951L22.1813 16.9264C21.7344 16.6076 21.1938 16.3857 20.625 16.2889L20.3125 16.2326V15.7639V15.292L20.4656 15.2514C20.6437 15.2076 20.9375 15.0389 21.0906 14.8951C21.6187 14.3951 21.7219 13.5045 21.3156 12.8857C21.1094 12.567 20.8313 12.3576 20.4719 12.2482C20.2125 12.167 19.775 12.167 19.525 12.2451ZM20.325 12.892C20.4969 12.9514 20.7375 13.1732 20.8281 13.3576C20.875 13.4514 20.8906 13.5482 20.8906 13.7482C20.8906 14.0576 20.8375 14.192 20.6406 14.3889C20.4437 14.5857 20.3094 14.6389 20 14.6389C19.6906 14.6389 19.5563 14.5857 19.3594 14.3889C19.1875 14.2201 19.1156 14.0545 19.1 13.8045C19.0719 13.3701 19.2844 13.0482 19.7031 12.8826C19.8406 12.8295 20.1531 12.8357 20.325 12.892ZM15.9844 14.7639C16.1688 14.8514 16.3062 14.992 16.4125 15.1951C16.5187 15.3951 16.5125 15.7701 16.4 15.9826C16.3031 16.1701 16.1594 16.3076 15.9688 16.4076C15.7719 16.5107 15.3875 16.5139 15.1969 16.4107C14.6813 16.1389 14.5125 15.5545 14.8125 15.0826C15.0594 14.692 15.5594 14.5545 15.9844 14.7639ZM24.8281 14.7639C25.1469 14.917 25.325 15.2107 25.3281 15.5764C25.3281 15.942 25.1469 16.2295 24.8031 16.4107C24.6125 16.5139 24.2281 16.5107 24.0312 16.4076C23.8375 16.3076 23.6969 16.167 23.6031 15.9857C23.2063 15.2107 24.0406 14.3764 24.8281 14.7639ZM14.1406 19.1701C14.3 19.2482 14.5 19.4482 14.5781 19.6076C14.625 19.7014 14.6406 19.7951 14.6406 19.9982C14.6406 20.3076 14.5875 20.442 14.3906 20.6389C14.1937 20.8357 14.0594 20.8889 13.75 20.8889C13.5469 20.8889 13.4531 20.8732 13.3594 20.8264C13.1969 20.7482 13 20.5482 12.9219 20.3889C12.8375 20.2107 12.8219 19.8889 12.8906 19.6826C12.9625 19.4732 13.2062 19.217 13.4062 19.1451C13.5969 19.0764 13.9719 19.0889 14.1406 19.1701ZM26.6406 19.1701C26.8 19.2482 27 19.4482 27.0781 19.6076C27.125 19.7014 27.1406 19.7951 27.1406 19.9982C27.1406 20.3076 27.0875 20.442 26.8906 20.6389C26.6937 20.8357 26.5594 20.8889 26.25 20.8889C26.0469 20.8889 25.9531 20.8732 25.8594 20.8264C25.6969 20.7482 25.5 20.5482 25.4219 20.3889C25.3375 20.2107 25.3219 19.8889 25.3906 19.6826C25.4625 19.4732 25.7062 19.217 25.9062 19.1451C26.0969 19.0764 26.4719 19.0889 26.6406 19.1701ZM15.9688 23.592C16.275 23.7451 16.4656 24.0264 16.4906 24.3576C16.5437 25.0451 15.8031 25.5451 15.1813 25.2389C14.4406 24.8732 14.5156 23.8357 15.3031 23.542C15.4719 23.4795 15.7938 23.5014 15.9688 23.592ZM24.8031 23.5889C25.1438 23.7607 25.3281 24.0545 25.3281 24.4201C25.325 24.942 24.9406 25.3264 24.4219 25.3264C24.0563 25.3264 23.7688 25.1451 23.5875 24.8014C23.4844 24.6107 23.4875 24.2264 23.5906 24.0295C23.7187 23.7826 23.9187 23.6139 24.1875 23.5264C24.325 23.4795 24.6625 23.5139 24.8031 23.5889ZM20.325 25.392C20.4969 25.4514 20.7375 25.6732 20.8281 25.8576C20.9156 26.0357 20.9156 26.4639 20.8281 26.6389C20.75 26.7982 20.55 26.9982 20.3906 27.0764C20.2156 27.1639 19.7844 27.1639 19.6094 27.0764C19.4469 26.9982 19.25 26.7982 19.1719 26.6389C19.0906 26.467 19.0719 26.1389 19.1375 25.942C19.2938 25.4764 19.8344 25.2264 20.325 25.392Z" fill="#7D7D7E"/>
</svg>
