<svg width="40" height="40" viewBox="0 0 40 40" fill="none" xmlns="http://www.w3.org/2000/svg">
<path d="M27.3 18.1304C27.3 17.8542 27.0762 17.6304 26.8 17.6304H25.6437C25.3675 17.6304 25.1437 17.4065 25.1437 17.1304V15.6759C25.1437 15.5377 25.0865 15.4057 24.9856 15.3111L21.598 12.1352C21.5054 12.0484 21.3831 12 21.2561 12H13.1992C12.9231 12 12.6992 12.2239 12.6992 12.5V27.5C12.6992 27.7761 12.9231 28 13.1992 28H24.6437C24.9198 28 25.1437 27.7761 25.1437 27.5V26.2516C25.1437 25.9754 25.3675 25.7516 25.6437 25.7516H26.8C27.0762 25.7516 27.3 25.5277 27.3 25.2516V18.1304ZM25.9667 23.9182C25.9667 24.1944 25.7428 24.4182 25.4667 24.4182H17.1334C16.8572 24.4182 16.6334 24.1944 16.6334 23.9182V19.4637C16.6334 19.1875 16.8572 18.9637 17.1334 18.9637H25.4667C25.7428 18.9637 25.9667 19.1875 25.9667 19.4637V23.9182Z" fill="#7D7D7E"/>
<path d="M19.5962 22.6809C19.5962 22.5502 19.4902 22.4443 19.3596 22.4443H18.6803C18.4042 22.4443 18.1803 22.2204 18.1803 21.9443V20.4105C18.1803 20.2614 18.0595 20.1406 17.9105 20.1406V20.1406C17.7614 20.1406 17.6406 20.2614 17.6406 20.4105V22.4175C17.6406 22.6937 17.8645 22.9175 18.1406 22.9175H19.3596C19.4902 22.9175 19.5962 22.8116 19.5962 22.6809V22.6809Z" fill="#7D7D7E"/>
<path d="M19.9516 22.4971C20.0702 22.6288 20.2123 22.7344 20.3779 22.8139C20.5435 22.8935 20.728 22.9332 20.9313 22.9332C21.1269 22.9332 21.3081 22.8947 21.475 22.8178C21.6418 22.7409 21.7852 22.6379 21.9052 22.5088C22.0251 22.3798 22.119 22.2311 22.1868 22.063C22.2546 21.8948 22.2885 21.7182 22.2885 21.533C22.2885 21.3583 22.2559 21.1863 22.1907 21.0167C22.1255 20.8473 22.0343 20.696 21.917 20.5631C21.7996 20.4301 21.6582 20.3225 21.4926 20.2404C21.327 20.1583 21.1438 20.1172 20.9431 20.1172C20.7475 20.1172 20.5663 20.1557 20.3995 20.2326C20.2326 20.3095 20.0885 20.4132 19.9673 20.5435C19.846 20.6739 19.7508 20.8238 19.6818 20.9933C19.6126 21.1628 19.5781 21.3401 19.5781 21.5252C19.5781 21.7026 19.6107 21.8759 19.6759 22.0454C19.741 22.2149 19.8329 22.3655 19.9516 22.4971ZM20.1785 21.1869C20.2137 21.0761 20.2651 20.977 20.333 20.8896C20.4007 20.8023 20.4855 20.7319 20.5872 20.6784C20.6889 20.625 20.8049 20.5983 20.9353 20.5983C21.0604 20.5983 21.1732 20.6237 21.2736 20.6745C21.3739 20.7254 21.4587 20.7938 21.5279 20.8799C21.5969 20.9659 21.6504 21.065 21.6882 21.1771C21.7259 21.2892 21.7449 21.4053 21.7449 21.5251C21.7449 21.6399 21.7272 21.7527 21.692 21.8635C21.6568 21.9743 21.6047 22.074 21.5356 22.1627C21.4664 22.2513 21.3817 22.3224 21.2813 22.3758C21.1809 22.4293 21.0656 22.456 20.9352 22.456C20.8074 22.456 20.6934 22.4299 20.593 22.3778C20.4926 22.3256 20.4079 22.2565 20.3388 22.1705C20.2696 22.0844 20.2169 21.9854 20.1804 21.8732C20.1439 21.7612 20.1256 21.6451 20.1256 21.5251C20.1256 21.4105 20.1433 21.2977 20.1785 21.1869Z" fill="#7D7D7E"/>
<path d="M22.9244 22.5225C23.043 22.6503 23.1825 22.7507 23.3428 22.8237C23.5032 22.8967 23.6746 22.9332 23.8572 22.9332C24.0798 22.9332 24.2817 22.8699 24.4627 22.7433C24.5296 22.6965 24.6316 22.7403 24.6316 22.822V22.822C24.6316 22.8726 24.6726 22.9136 24.7232 22.9136H24.8545C24.9776 22.9136 25.0774 22.8138 25.0774 22.6907V21.9861C25.0774 21.7099 24.8536 21.4861 24.5774 21.4861H24.2698C24.1607 21.4861 24.0723 21.5745 24.0723 21.6836V21.6836C24.0723 21.7927 24.1607 21.8811 24.2698 21.8811H24.4888C24.5676 21.8811 24.6316 21.945 24.6316 22.0239V22.0239C24.6316 22.0579 24.6196 22.0911 24.5966 22.1162C24.3891 22.3428 24.1582 22.456 23.9041 22.456C23.7868 22.456 23.6779 22.4319 23.5775 22.3837C23.4771 22.3355 23.3904 22.2696 23.3174 22.1862C23.2444 22.1027 23.187 22.0043 23.1453 21.8909C23.1036 21.7775 23.0828 21.6556 23.0828 21.5252C23.0828 21.4 23.1016 21.2814 23.1395 21.1693C23.1772 21.0572 23.2307 20.9581 23.2998 20.872C23.3688 20.786 23.4523 20.7182 23.5501 20.6687C23.6479 20.6191 23.7554 20.5943 23.8728 20.5943C24.0214 20.5943 24.1589 20.6309 24.2854 20.7039C24.3285 20.7288 24.3685 20.7575 24.4051 20.7901C24.5193 20.8914 24.6925 20.9382 24.8153 20.8476V20.8476C24.9124 20.7759 24.9461 20.6422 24.8715 20.5473C24.7888 20.4423 24.686 20.3536 24.5631 20.2815C24.3767 20.1719 24.1531 20.1172 23.8924 20.1172C23.6994 20.1172 23.5208 20.1543 23.3565 20.2287C23.1923 20.303 23.0495 20.4034 22.9282 20.5298C22.807 20.6563 22.7118 20.8036 22.6427 20.9718C22.5736 21.1399 22.5391 21.3192 22.5391 21.5095C22.5391 21.7103 22.5736 21.8974 22.6427 22.0708C22.7118 22.2442 22.8057 22.3948 22.9244 22.5225Z" fill="#7D7D7E"/>
</svg>
