<svg width="40" height="40" viewBox="0 0 40 40" fill="none" xmlns="http://www.w3.org/2000/svg">
<g clip-path="url(#clip0_2_1869)">
<path d="M19.4547 12.0172C19.4203 12.0266 19.2797 12.0547 19.1422 12.0797C17.5141 12.3922 16.1641 13.8016 15.8922 15.4672C15.8328 15.8422 15.8328 16.4609 15.8922 16.8328C16.1766 18.5859 17.5672 19.9703 19.3453 20.2641C19.6922 20.3234 20.3172 20.3234 20.6797 20.2641C22.3578 19.9922 23.7234 18.6828 24.0859 16.9984C24.1672 16.6234 24.1672 15.6859 24.0859 15.3109C23.7359 13.6953 22.4922 12.4391 20.8766 12.0766C20.6484 12.0234 19.6047 11.9828 19.4547 12.0172Z" fill="#FF7901"/>
<path d="M16.5632 20.6528C15.5444 20.8684 14.6819 21.3278 13.9694 22.0309C13.4975 22.4965 12.9944 23.2215 12.8569 23.6309C12.7913 23.8309 12.8225 23.9215 13.1132 24.3496C14.2007 25.959 15.86 27.1715 17.6725 27.684C18.9694 28.0465 20.3663 28.1028 21.6444 27.8434C22.9194 27.584 24.1788 26.9903 25.1757 26.1871C25.7975 25.6871 26.6007 24.7809 27.01 24.1215C27.2225 23.7746 27.2225 23.759 27.0194 23.359C26.3038 21.9528 24.8944 20.9121 23.335 20.6371C22.9413 20.5684 22.8069 20.5965 22.46 20.8246C21.6882 21.3309 20.9038 21.5684 20.0007 21.5684C19.0757 21.5684 18.3319 21.3371 17.4725 20.7809C17.2382 20.6278 17.1944 20.6121 17.0194 20.6059C16.9163 20.5996 16.71 20.6215 16.5632 20.6528Z" fill="#FF7901"/>
</g>
<defs>
<clipPath id="clip0_2_1869">
<rect width="16" height="16" fill="white" transform="translate(12 12)"/>
</clipPath>
</defs>
</svg>
